<?xml version="1.0" encoding="utf-8"?>
<!-- Generator: Adobe Illustrator 25.4.1, SVG Export Plug-In . SVG Version: 6.00 Build 0)  -->
<svg version="1.1" id="Layer_1" xmlns="http://www.w3.org/2000/svg" xmlns:xlink="http://www.w3.org/1999/xlink" x="0px" y="0px"
	 viewBox="0 0 250.8 321.7" style="enable-background:new 0 0 250.8 321.7;" xml:space="preserve">
<style type="text/css">
	
		.st0{fill-rule:evenodd;clip-rule:evenodd;fill:#C83434;stroke:#C83434;stroke-width:2.834645e-02;stroke-linecap:round;stroke-linejoin:round;stroke-miterlimit:10;}
</style>
<g id="Layer_7">
	<polygon class="st0" points="237.4,267.6 237.4,267.6 237.3,267.2 237.2,266.8 237.1,266.4 236.9,265.9 236.7,265.4 236.5,264.8 
		236.2,264.2 235.9,263.4 235.6,262.6 235.2,261.7 234.8,260.7 234.3,259.6 234,259 233.3,257.4 232.7,256 232.1,254.6 231.5,253.3 
		231,252.1 230.5,250.9 230.1,249.8 229.6,248.7 229.2,247.7 228.8,246.7 228.4,245.7 228,244.7 227.6,243.7 227.2,242.7 
		226.8,241.7 226.6,241.1 225.6,238.5 224.7,235.8 223.8,233.1 222.9,230.4 222,227.7 221.2,225 220.5,222.5 220.5,222.4 
		220.3,221.6 220.1,220.8 219.9,220.2 219.7,219.5 219.5,218.9 219.4,218.2 219.2,217.5 219,216.7 218.8,216 218.3,214.1 
		217.9,212.2 217.5,210.3 217.1,208.5 216.7,206.6 216.3,204.7 216,202.8 215.6,200.8 215.3,198.7 215.2,198.6 215,196.9 214.7,195 
		214.4,193.1 214.2,191.1 213.9,189.1 213.7,187 213.5,185 213.3,183 213.1,181 213,179.2 212.9,177.4 212.8,177.2 212.8,176.8 
		212.8,176.3 212.8,175.8 212.7,175.4 212.7,175.2 212.7,175 212.7,174.7 212.7,174.5 212.7,174.2 212.7,173.9 212.6,173.6 
		212.6,173.2 212.6,172.8 212.6,172.2 212.6,171.6 212.5,170.9 212.5,170.7 212.5,170.2 212.5,169.7 212.5,169 212.5,168.3 
		212.5,167.5 212.5,166.6 212.5,165.7 212.5,164.7 212.5,163.7 212.5,162.6 212.5,161.6 212.5,160.5 212.5,159.4 212.5,158.3 
		212.5,157.2 212.5,156.2 212.5,155.2 212.5,154.3 212.5,153.4 212.5,152.5 212.5,151.8 212.5,151.1 212.5,150.5 212.5,150 
		212.5,149.6 212.6,149 212.6,148.4 212.6,147.8 212.6,147.3 212.6,146.9 212.7,146.5 212.7,146.2 212.7,145.8 212.7,145.5 
		212.7,145.1 212.8,144.7 212.8,144.2 212.8,143.7 212.9,143.1 212.9,142.3 213,140.7 213.2,138.9 213.3,137.1 213.5,135.3 
		213.7,133.5 213.9,131.6 214.1,129.8 214.3,128 214.6,126.3 214.8,124.6 214.8,124.6 214.9,124.2 215,123.6 215.1,123 215.2,122.3 
		215.3,121.5 215.4,120.8 215.6,120 215.7,119.2 215.8,118.4 216,117.6 216.1,117 216.2,116.3 216.4,115.4 216.6,114.5 216.7,113.6 
		216.9,112.7 217.1,111.7 217.3,110.7 217.5,109.8 217.7,108.9 217.9,108.1 217.9,108 218,107.6 218.2,107.1 218.3,106.5 
		218.5,105.9 218.6,105.2 218.8,104.5 219,103.8 219.2,103.1 219.3,102.4 219.5,101.7 219.6,101.1 219.8,100.6 219.9,100.2 
		220,99.8 220.1,99.6 220.2,99.1 220.3,98.7 220.4,98.2 220.5,97.9 220.6,97.7 221,96.4 221.4,95 221.8,93.5 222.3,92 222.8,90.5 
		223.3,88.9 223.8,87.4 224.3,85.9 224.8,84.4 225.3,83 225.6,82 226.1,80.7 226.6,79.4 227.1,78.2 227.5,76.9 228,75.7 228.5,74.4 
		229.1,73.1 229.6,71.7 230.2,70.4 230.8,68.9 231.4,67.4 232.1,65.8 232.8,64.2 233.6,62.4 233.9,61.8 234.3,60.8 234.8,59.8 
		235.1,58.9 235.5,58.1 235.8,57.4 236.1,56.7 236.3,56.2 236.5,55.6 236.7,55.2 236.8,54.8 237,54.4 237.1,54 237.2,53.7 
		237.3,53.4 237.3,53.1 237.4,52.8 237.5,52.5 237.5,52 237.5,51.5 237.4,51.1 237.3,50.5 237.1,49.9 237,49.8 236.8,49.4 236.6,49 
		236.4,48.5 236.2,48 235.9,47.4 235.6,46.9 235.3,46.4 235.1,45.9 234.9,45.6 234.2,44.4 233.4,43.1 232.5,41.7 231.6,40.2 
		230.6,38.7 229.5,37.1 228.3,35.4 227.1,33.6 225.8,31.8 224.4,29.9 223,27.9 221.5,25.9 219.9,23.8 218.3,21.6 216.6,19.4 
		214.9,17.1 213.1,14.7 211.2,12.3 211,12 210.6,11.5 210.3,11.1 210,10.7 209.7,10.5 209.5,10.2 209.3,10 209.1,9.9 208.9,9.8 
		208.7,9.7 208.5,9.6 208.3,9.6 208.3,9.6 208.3,9.6 208.2,9.6 208.1,9.6 208,9.6 207.9,9.6 207.7,9.5 207.5,9.5 207.3,9.5 
		207.1,9.5 206.8,9.5 206.5,9.5 206.1,9.5 205.7,9.5 205.3,9.5 204.8,9.5 204.3,9.5 203.7,9.5 203.1,9.5 202.4,9.5 201.7,9.5 
		200.9,9.5 200.1,9.5 199.2,9.5 198.2,9.5 197.2,9.5 196.1,9.5 194.9,9.5 193.7,9.5 192.4,9.5 191.1,9.5 189.7,9.5 188.2,9.5 
		186.6,9.5 184.9,9.5 183.2,9.5 181.4,9.5 179.5,9.5 177.5,9.5 175.4,9.5 173.2,9.5 171,9.5 168.6,9.5 166.2,9.5 163.7,9.5 161,9.5 
		158.3,9.5 155.4,9.5 152.5,9.5 149.5,9.5 146.3,9.5 143,9.5 139.7,9.5 136.2,9.5 132.6,9.5 128.8,9.5 125,9.5 123.5,9.5 119.7,9.5 
		116,9.5 112.5,9.5 109,9.5 105.7,9.5 102.5,9.5 99.3,9.5 96.3,9.5 93.4,9.5 90.6,9.5 87.9,9.5 85.3,9.5 82.8,9.5 80.4,9.5 
		78.1,9.5 75.9,9.5 73.7,9.5 71.7,9.5 69.7,9.5 67.9,9.5 66.1,9.5 64.4,9.5 62.8,9.5 61.2,9.5 59.7,9.5 58.3,9.5 57,9.5 55.7,9.5 
		54.6,9.5 53.4,9.5 52.4,9.5 51.4,9.5 50.4,9.5 49.6,9.5 48.8,9.5 48,9.5 47.3,9.5 46.6,9.5 46,9.5 45.5,9.5 45,9.5 44.5,9.5 
		44.1,9.5 43.7,9.5 43.4,9.5 43.1,9.5 42.8,9.5 42.6,9.5 42.4,9.5 42.2,9.6 42.1,9.6 41.9,9.6 41.8,9.6 41.8,9.6 41.7,9.6 41.7,9.6 
		41.4,9.7 40.9,9.9 40.5,10.2 40.4,10.3 40.3,10.4 40.1,10.7 39.9,11 39.6,11.3 39.2,11.8 38.9,12.3 38.5,12.8 38.1,13.3 37.6,13.9 
		37.4,14.2 36.9,14.8 36.5,15.4 36.1,15.9 35.7,16.4 35.4,16.9 35.1,17.3 34.8,17.6 34.6,17.9 34.5,18 34.4,18.2 34.3,18.3 
		34.1,18.5 34,18.7 33.8,19 33.6,19.2 33.3,19.6 33.1,19.9 32.7,20.4 32.4,20.9 31.9,21.4 31.4,22.1 30.9,22.8 30.3,23.6 29.5,24.6 
		29,25.3 28.8,25.6 28.1,26.5 27.5,27.3 27,28 26.5,28.7 26,29.3 25.6,29.8 25.2,30.3 24.8,30.8 24.5,31.3 24.2,31.7 23.9,32.1 
		23.6,32.5 23.3,32.8 23,33.2 22.7,33.6 22.4,34 22.1,34.4 21.8,34.9 21.6,35.1 21.3,35.5 21,35.9 20.6,36.4 20.2,37 19.7,37.6 
		19.2,38.2 18.8,38.9 18.5,39.2 18.3,39.5 17.8,40.1 17.4,40.6 16.9,41.3 16.5,41.9 16,42.5 15.5,43.1 15.1,43.6 14.8,44.2 
		14.4,44.6 14.1,45 13.9,45.2 13.6,45.6 13.3,46.1 13.1,46.4 12.6,47 12.1,47.6 11.7,48.2 11.4,48.6 11.1,49 10.8,49.3 10.6,49.6 
		10.5,49.8 10.3,50 10.2,50.2 10.1,50.3 10.1,50.4 10,50.5 10,50.6 10,50.7 10,50.7 9.9,50.8 9.9,50.9 9.9,51 9.9,51 9.9,51.2 
		9.8,51.3 9.8,51.5 9.8,51.7 9.8,52 9.8,52.3 9.8,52.8 9.8,53.3 9.8,53.9 9.8,54.6 9.8,54.7 9.8,55.4 9.8,56 9.8,56.8 9.8,57.5 
		9.8,58.1 9.8,58.1 9.8,58.7 9.8,59.1 9.9,59.5 9.9,59.7 9.9,59.8 10,60.3 10.3,60.7 10.5,61 10.7,61.2 10.7,61.2 10.9,61.4 
		11.1,61.6 11.4,61.7 11.6,61.8 12,62 12.5,62.2 13,62.5 13.4,62.7 13.8,62.9 14.1,63.1 15,63.8 15.9,64.6 16.7,65.5 17.5,66.5 
		18.2,67.6 18.8,68.8 19.3,70.1 19.4,70.3 19.8,71.5 20.3,73 20.3,73.3 20.5,73.9 20.6,74.5 20.8,75.3 20.9,76.1 21,76.8 21.1,77.6 
		21.2,78.3 21.3,79.7 21.4,81.3 21.4,82.8 21.4,84.4 21.4,86 21.3,87.6 21.2,89.1 21,90.5 20.9,91.3 20.8,92 20.5,93.6 20.1,95.1 
		19.7,96.5 19.2,97.7 18.7,98.9 18,100 17.4,101.1 16.6,102 15.9,102.8 15.8,102.9 15.7,103 14.9,103.7 14.2,104.3 13.4,104.8 
		12.5,105.3 12,105.5 11.7,105.6 11.4,105.8 11.2,105.9 11.1,106 10.9,106 10.8,106.1 10.7,106.2 10.6,106.3 10.3,106.7 10,107.2 
		9.9,107.7 9.9,107.7 9.8,107.9 9.8,108.2 9.8,108.6 9.8,109 9.8,109.3 9.8,109.4 9.8,109.8 9.8,110.2 9.8,110.6 9.9,110.8 9.9,111 
		10,111.3 10.3,111.8 10.5,112.2 10.6,112.2 10.9,112.5 11.2,112.7 11.5,112.9 11.7,113 11.9,113.1 12.2,113.2 12.6,113.4 
		12.9,113.6 13.3,113.8 13.6,114 13.9,114.1 14.4,114.5 15.4,115.2 16.2,116 16.6,116.6 17,117 17.7,118 18.4,119.1 18.9,120.2 
		19.5,121.5 19.9,122.9 20.3,124.4 20.7,126 21,127.7 21,128.1 21.2,129.5 21.3,131.3 21.3,131.4 21.4,131.8 21.4,132.4 21.4,132.9 
		21.4,133.6 21.4,134.3 21.4,135 21.4,135.6 21.4,136.3 21.4,136.9 21.4,137.5 21.4,138 21.3,138.4 21.2,139.8 21,141.4 20.8,142.9 
		20.6,144.3 20.3,145.6 19.9,146.8 19.5,148 19.1,149 19.1,149.1 18.6,150.2 18.3,150.8 17.6,151.9 16.9,152.9 16,153.8 15.2,154.6 
		14.2,155.4 13.2,156 12.2,156.5 12,156.6 11.5,156.8 11.1,157 10.8,157.2 10.6,157.5 10.4,157.7 10.2,158 10.1,158.1 10,158.3 
		9.9,158.5 9.9,158.6 9.9,158.7 9.8,159 9.8,159.3 9.8,159.7 9.8,160.2 9.8,160.3 9.8,160.9 9.8,161.3 9.9,161.7 10,162 10.1,162.3 
		10.2,162.5 10.4,162.8 10.7,163.1 10.8,163.1 10.8,163.2 11,163.4 11.3,163.5 11.5,163.7 11.9,163.8 12.4,164.1 12.9,164.3 
		13.3,164.5 13.7,164.8 14,164.9 15,165.7 15.9,166.5 16.7,167.4 17.4,168.4 18.1,169.5 18.8,170.7 19.3,172 19.8,173.4 20.1,174.4 
		20.3,174.8 20.6,176.4 20.8,177.3 21,178.9 21.2,180.4 21.3,182 21.4,183.7 21.4,185.3 21.4,187 21.4,188.6 21.3,190.2 21.1,191.7 
		20.9,193.2 20.6,194.7 20.5,195.2 20.3,196.1 20,197.3 19.6,198.5 19.6,198.6 19.1,199.9 18.5,201.1 17.8,202.3 17.1,203.3 
		16.4,204.2 15.5,205.1 14.6,205.8 13.6,206.5 13.6,206.6 13.1,206.8 12.9,206.9 12.4,207.2 11.7,207.5 11.4,207.6 10.9,208 
		10.5,208.4 10.2,208.8 9.9,209.3 9.9,209.4 9.9,209.5 9.9,209.6 9.8,209.8 9.8,210 9.8,210.3 9.8,210.7 9.8,211.1 9.8,211.6 
		9.8,211.6 9.8,212.1 9.8,212.4 9.9,212.7 9.9,212.9 10,213.2 10.3,213.7 10.6,214.2 11,214.5 11.1,214.5 11.2,214.6 11.4,214.7 
		11.7,214.9 12,215 12.1,215 13.2,215.6 14.2,216.2 15.2,216.9 16.1,217.8 16.9,218.7 17.6,219.7 18,220.4 18.1,220.6 18.6,221.5 
		19.2,222.7 19.6,223.9 20.1,225.2 20.4,226.6 20.7,228.1 21,229.7 21.2,231.4 21.3,233.2 21.3,233.2 21.4,233.7 21.4,234.2 
		21.4,234.7 21.4,235.4 21.4,236.1 21.4,236.8 21.4,237.5 21.4,238.1 21.4,238.8 21.4,239.3 21.4,239.8 21.3,240.2 21.2,241.6 
		21.1,243.2 20.8,244.7 20.6,246.1 20.3,247.5 19.9,248.7 19.5,249.9 19.1,251 18.7,251.8 18.1,252.9 17.4,254 16.7,255 15.9,255.8 
		15.1,256.6 14.1,257.3 13.1,257.9 12.1,258.4 11.9,258.5 11.6,258.7 11.3,258.8 11.1,258.9 10.9,259 10.7,259.2 10.4,259.5 
		10.2,259.9 10,260.3 9.8,260.6 9.8,262.5 9.8,264.1 9.8,264.9 9.8,265 9.8,265.9 9.8,266.7 9.8,267.4 9.8,267.8 9.8,268 9.8,268.5 
		9.8,268.9 9.8,269.2 9.9,269.4 9.9,269.5 9.9,269.6 10,269.7 10,269.9 10.1,270.1 10.3,270.3 10.5,270.6 10.7,271 11,271.4 
		11.4,271.9 11.5,272 11.8,272.4 12.1,272.8 12.5,273.3 12.9,273.9 13.4,274.5 13.8,275.1 14.3,275.7 14.7,276.2 15.3,277 
		16.1,278.1 17,279.3 17.8,280.4 18.6,281.4 19.4,282.5 20.2,283.5 20.9,284.5 20.9,284.5 21.6,285.4 22.3,286.3 22.9,287.1 
		23.5,287.9 24.1,288.6 24.6,289.3 25,289.9 25.4,290.4 25.7,290.8 26,291.1 26.2,291.4 26.3,291.6 26.4,291.7 26.6,292 26.9,292.4 
		27.2,292.8 27.6,293.2 27.9,293.7 28.2,294.1 28.3,294.2 28.6,294.6 29,295.1 29.4,295.6 29.8,296.2 30.3,296.8 30.7,297.4 
		31.1,297.9 31.2,298 31.9,299 32.7,300.1 33.6,301.2 34,301.7 34.4,302.3 35.3,303.5 35.8,304.2 36.1,304.6 36.1,304.6 36.5,305.1 
		36.9,305.7 37.7,306.7 38.4,307.6 38.8,308.1 39.1,308.5 39.4,308.9 39.7,309.3 40,309.7 40.2,309.9 40.4,310.1 40.5,310.2 
		40.7,310.4 41.2,310.7 41.7,310.9 41.7,310.9 41.8,310.9 41.8,310.9 41.9,310.9 42,310.9 42.2,310.9 42.4,310.9 42.6,310.9 
		42.8,310.9 43.1,310.9 43.4,310.9 43.7,310.9 44.1,310.9 44.6,310.9 45,310.9 45.5,310.9 46.1,310.9 46.7,310.9 47.4,310.9 
		48.1,310.9 48.9,310.9 49.7,311 50.6,311 51.6,311 52.6,311 53.7,311 54.8,311 56.1,311 57.3,311 58.7,311 60.1,311 61.6,311 
		63.2,311 64.9,311 66.6,311 68.4,311 70.4,311 72.3,311 74.4,311 76.6,311 78.9,311 81.2,311 83.7,311 86.2,311 88.8,311 91.6,311 
		94.4,311 97.4,311 100.4,311 103.6,311 106.9,311 110.3,311 113.7,311 117.4,311 121.1,311 124.9,311 126.2,311 130.6,311 
		134.8,311 138.9,311 142.8,311 146.7,311 150.5,311 154.1,311 157.6,311 161,311 164.3,311 167.4,311 170.5,311 173.4,311 
		176.2,311 178.9,311 181.5,311 183.9,311 186.3,311 188.5,311 190.6,311 192.6,311 194.4,311 196.2,311 197.8,311 199.3,311 
		200.7,311 202,311 203.1,310.9 204.1,310.9 205.1,310.9 205.9,310.9 206.5,310.9 207.1,310.9 207.5,310.9 207.8,310.9 208,310.9 
		208.1,310.9 208.2,310.9 208.6,310.8 209,310.6 209.3,310.4 209.6,310.2 209.6,310.2 209.7,310.1 209.9,309.8 210.1,309.5 
		210.4,309.1 210.8,308.7 211.2,308.2 211.7,307.6 212.2,306.9 212.7,306.3 213.2,305.5 213.8,304.8 214.5,303.9 215.1,303.1 
		215.7,302.3 216.4,301.4 217,300.5 217.7,299.7 218.4,298.8 219,297.9 219.7,297.1 220.3,296.2 220.9,295.4 221.4,294.7 222,293.9 
		222.5,293.2 223,292.6 223.9,291.2 225.3,289.3 226.6,287.5 227.9,285.7 229,284.1 230.1,282.5 231.1,281 232,279.6 232.8,278.3 
		233.6,277 234.3,275.8 235,274.8 235.5,273.7 236,272.8 236.3,272.2 236.7,271.5 236.9,270.8 237.1,270.3 237.3,269.8 237.4,269.3 
		237.5,268.9 237.5,268.4 237.5,268 	"/>
</g>
</svg>
