<?xml version="1.0" encoding="utf-8"?>
<!-- Generator: Adobe Illustrator 25.4.1, SVG Export Plug-In . SVG Version: 6.00 Build 0)  -->
<svg version="1.1" id="Layer_1" xmlns="http://www.w3.org/2000/svg" xmlns:xlink="http://www.w3.org/1999/xlink" x="0px" y="0px"
	 viewBox="0 0 250.8 321.7" style="enable-background:new 0 0 250.8 321.7;" xml:space="preserve">
<style type="text/css">
	.st0{fill:#B4DBD2;stroke:#B4DBD2;stroke-width:0.2835;stroke-linecap:round;stroke-linejoin:round;stroke-miterlimit:10;}
</style>
<g id="Layer_3">
	<g>
		<rect x="92.6" y="73.7" class="st0" width="14.4" height="14.4"/>
		<rect x="171.8" y="134.8" class="st0" width="18" height="21.6"/>
		<rect x="13.4" y="70" class="st0" width="32.4" height="32.4"/>
		<polygon class="st0" points="135.8,228.5 99.8,228.5 99.8,264.5 89,264.5 89,242.8 56.6,242.8 56.6,260.8 42.2,260.8 42.2,300.5 
			45.8,300.5 45.8,311.2 74.6,311.2 74.6,314.8 157.4,314.8 157.4,282.5 135.8,282.5 		"/>
		<polygon class="st0" points="45.8,188.8 81.8,188.8 81.8,152.8 45.8,152.8 45.8,170.8 13.4,170.8 13.4,203.2 45.8,203.2 		"/>
		<rect x="143" y="250" class="st0" width="32.4" height="21.6"/>
		<rect x="13.4" y="224.8" class="st0" width="32.4" height="32.4"/>
		<rect x="13.4" y="120.5" class="st0" width="32.4" height="32.4"/>
		<rect x="81.8" y="188.8" class="st0" width="28.8" height="32.4"/>
		<rect x="63.8" y="8.8" class="st0" width="111.6" height="32.4"/>
	</g>
</g>
</svg>
